<svg width="300" height="118" viewBox="0 0 300 118" fill="none" xmlns="http://www.w3.org/2000/svg" >
<g filter="url(#filter0_dd_17_2)">
<path d="M47.64 40.12V46.9H36.48V82H28.08V46.9H16.92V40.12H47.64ZM58.0289 44.8C56.5489 44.8 55.3089 44.34 54.3089 43.42C53.3489 42.46 52.8689 41.28 52.8689 39.88C52.8689 38.48 53.3489 37.32 54.3089 36.4C55.3089 35.44 56.5489 34.96 58.0289 34.96C59.5089 34.96 60.7289 35.44 61.6889 36.4C62.6889 37.32 63.1889 38.48 63.1889 39.88C63.1889 41.28 62.6889 42.46 61.6889 43.42C60.7289 44.34 59.5089 44.8 58.0289 44.8ZM62.1689 48.76V82H53.7689V48.76H62.1689ZM111.748 48.28C115.828 48.28 119.108 49.54 121.588 52.06C124.108 54.54 125.368 58.02 125.368 62.5V82H116.968V63.64C116.968 61.04 116.308 59.06 114.988 57.7C113.668 56.3 111.868 55.6 109.588 55.6C107.308 55.6 105.488 56.3 104.128 57.7C102.808 59.06 102.148 61.04 102.148 63.64V82H93.7481V63.64C93.7481 61.04 93.0881 59.06 91.7681 57.7C90.4481 56.3 88.6481 55.6 86.3681 55.6C84.0481 55.6 82.2081 56.3 80.8481 57.7C79.5281 59.06 78.8681 61.04 78.8681 63.64V82H70.4681V48.76H78.8681V52.78C79.9481 51.38 81.3281 50.28 83.0081 49.48C84.7281 48.68 86.6081 48.28 88.6481 48.28C91.2481 48.28 93.5681 48.84 95.6081 49.96C97.6481 51.04 99.2281 52.6 100.348 54.64C101.428 52.72 102.988 51.18 105.028 50.02C107.108 48.86 109.348 48.28 111.748 48.28ZM164.239 64.66C164.239 65.86 164.159 66.94 163.999 67.9H139.699C139.899 70.3 140.739 72.18 142.219 73.54C143.699 74.9 145.519 75.58 147.679 75.58C150.799 75.58 153.019 74.24 154.339 71.56H163.399C162.439 74.76 160.599 77.4 157.879 79.48C155.159 81.52 151.819 82.54 147.859 82.54C144.659 82.54 141.779 81.84 139.219 80.44C136.699 79 134.719 76.98 133.279 74.38C131.879 71.78 131.179 68.78 131.179 65.38C131.179 61.94 131.879 58.92 133.279 56.32C134.679 53.72 136.639 51.72 139.159 50.32C141.679 48.92 144.579 48.22 147.859 48.22C151.019 48.22 153.839 48.9 156.319 50.26C158.839 51.62 160.779 53.56 162.139 56.08C163.539 58.56 164.239 61.42 164.239 64.66ZM155.539 62.26C155.499 60.1 154.719 58.38 153.199 57.1C151.679 55.78 149.819 55.12 147.619 55.12C145.539 55.12 143.779 55.76 142.339 57.04C140.939 58.28 140.079 60.02 139.759 62.26H155.539Z" fill="white"/>
<path d="M198.87 40.12V46.9H187.71V82H179.31V46.9H168.15V40.12H198.87ZM202.839 65.26C202.839 61.9 203.499 58.92 204.819 56.32C206.179 53.72 207.999 51.72 210.279 50.32C212.599 48.92 215.179 48.22 218.019 48.22C220.499 48.22 222.659 48.72 224.499 49.72C226.379 50.72 227.879 51.98 228.999 53.5V48.76H237.459V82H228.999V77.14C227.919 78.7 226.419 80 224.499 81.04C222.619 82.04 220.439 82.54 217.959 82.54C215.159 82.54 212.599 81.82 210.279 80.38C207.999 78.94 206.179 76.92 204.819 74.32C203.499 71.68 202.839 68.66 202.839 65.26ZM228.999 65.38C228.999 63.34 228.599 61.6 227.799 60.16C226.999 58.68 225.919 57.56 224.559 56.8C223.199 56 221.739 55.6 220.179 55.6C218.619 55.6 217.179 55.98 215.859 56.74C214.539 57.5 213.459 58.62 212.619 60.1C211.819 61.54 211.419 63.26 211.419 65.26C211.419 67.26 211.819 69.02 212.619 70.54C213.459 72.02 214.539 73.16 215.859 73.96C217.219 74.76 218.659 75.16 220.179 75.16C221.739 75.16 223.199 74.78 224.559 74.02C225.919 73.22 226.999 72.1 227.799 70.66C228.599 69.18 228.999 67.42 228.999 65.38ZM254.063 53.62C255.143 52.02 256.623 50.72 258.503 49.72C260.423 48.72 262.603 48.22 265.043 48.22C267.883 48.22 270.443 48.92 272.723 50.32C275.043 51.72 276.863 53.72 278.183 56.32C279.543 58.88 280.223 61.86 280.223 65.26C280.223 68.66 279.543 71.68 278.183 74.32C276.863 76.92 275.043 78.94 272.723 80.38C270.443 81.82 267.883 82.54 265.043 82.54C262.563 82.54 260.383 82.06 258.503 81.1C256.663 80.1 255.183 78.82 254.063 77.26V82H245.663V37.6H254.063V53.62ZM271.643 65.26C271.643 63.26 271.223 61.54 270.383 60.1C269.583 58.62 268.503 57.5 267.143 56.74C265.823 55.98 264.383 55.6 262.823 55.6C261.303 55.6 259.863 56 258.503 56.8C257.183 57.56 256.103 58.68 255.263 60.16C254.463 61.64 254.063 63.38 254.063 65.38C254.063 67.38 254.463 69.12 255.263 70.6C256.103 72.08 257.183 73.22 258.503 74.02C259.863 74.78 261.303 75.16 262.823 75.16C264.383 75.16 265.823 74.76 267.143 73.96C268.503 73.16 269.583 72.02 270.383 70.54C271.223 69.06 271.643 67.3 271.643 65.26Z" fill="url(#paint0_linear_17_2)"/>
</g>
<defs>
<filter id="filter0_dd_17_2" x="12.92" y="34.96" width="271.303" height="55.58" filterUnits="userSpaceOnUse" color-interpolation-filters="sRGB">
<feFlood flood-opacity="0" result="BackgroundImageFix"/>
<feColorMatrix in="SourceAlpha" type="matrix" values="0 0 0 0 0 0 0 0 0 0 0 0 0 0 0 0 0 0 127 0" result="hardAlpha"/>
<feOffset dy="4"/>
<feGaussianBlur stdDeviation="2"/>
<feComposite in2="hardAlpha" operator="out"/>
<feColorMatrix type="matrix" values="0 0 0 0 0 0 0 0 0 0 0 0 0 0 0 0 0 0 0.25 0"/>
<feBlend mode="normal" in2="BackgroundImageFix" result="effect1_dropShadow_17_2"/>
<feColorMatrix in="SourceAlpha" type="matrix" values="0 0 0 0 0 0 0 0 0 0 0 0 0 0 0 0 0 0 127 0" result="hardAlpha"/>
<feOffset dy="4"/>
<feGaussianBlur stdDeviation="2"/>
<feComposite in2="hardAlpha" operator="out"/>
<feColorMatrix type="matrix" values="0 0 0 0 0 0 0 0 0 0 0 0 0 0 0 0 0 0 0.25 0"/>
<feBlend mode="normal" in2="effect1_dropShadow_17_2" result="effect2_dropShadow_17_2"/>
<feBlend mode="normal" in="SourceGraphic" in2="effect2_dropShadow_17_2" result="shape"/>
</filter>
<linearGradient id="paint0_linear_17_2" x1="150" y1="22" x2="150" y2="90" gradientUnits="userSpaceOnUse">
<stop offset="0.510417" stop-color="#22E3B6"/>
<stop offset="1" stop-color="#22E3B6" stop-opacity="0"/>
</linearGradient>
</defs>
</svg>
